PathFileType	4	(X/Y/Z)	C:/Users/opensim2020/Desktop/walking_exp_matlab/subject03_walking05_straight_03.trc																																																																																																																																					
DataRate	CameraRate	NumFrames	NumMarkers	Units	OrigDataRate	OrigDataStartFrame	OrigNumFrames																																																																																																																																	
100	100	4	45	mm	100	2147	293																																																																																																																																	
Frame#	Time	LFHD			RFHD			LBHD			RBHD			C7			T10			CLAV			STRN			RBAK			LSHO			LUPA			LELB			LFRM			LWRA			LWRB			LFIN			RSHO			RUPA			RELB			RFRM			RWRA			RWRB			RFIN			LASI			RASI			LPSI			RPSI			LTHI			LKNE			LTIB			LANK			LHEE			LTOE			RTHI			RKNE			RTIB			RANK			RHEE			RTOE			*39			*40			*41			*42			*43			*44		
		X1	Y1	Z1	X2	Y2	Z2	X3	Y3	Z3	X4	Y4	Z4	X5	Y5	Z5	X6	Y6	Z6	X7	Y7	Z7	X8	Y8	Z8	X9	Y9	Z9	X10	Y10	Z10	X11	Y11	Z11	X12	Y12	Z12	X13	Y13	Z13	X14	Y14	Z14	X15	Y15	Z15	X16	Y16	Z16	X17	Y17	Z17	X18	Y18	Z18	X19	Y19	Z19	X20	Y20	Z20	X21	Y21	Z21	X22	Y22	Z22	X23	Y23	Z23	X24	Y24	Z24	X25	Y25	Z25	X26	Y26	Z26	X27	Y27	Z27	X28	Y28	Z28	X29	Y29	Z29	X30	Y30	Z30	X31	Y31	Z31	X32	Y32	Z32	X33	Y33	Z33	X34	Y34	Z34	X35	Y35	Z35	X36	Y36	Z36	X37	Y37	Z37	X38	Y38	Z38	X39	Y39	Z39	X40	Y40	Z40	X41	Y41	Z41	X42	Y42	Z42	X43	Y43	Z43	X44	Y44	Z44	X45	Y45	Z45
																																																																																																																																								
37	0.36	-1174.85559	1611.13513	-1079.26953	-1205.26782	1615.78223	-950.5058	-1295.03125	1550.55615	-1102.19214	-1319.64917	1555.23413	-973.12323	-1327.03516	1408.92566	-1050.59229	-1382.11389	1100.31519	-1061.0061	-1209.19287	1326.75159	-1024.11401	-1176.76868	1158.2959	-1026.47705	-1407.73694	1238.93579	-971.08392	-1214.93652	1366.50195	-1184.5824	-1192.61584	1170.56665	-1247.30139	-1167.53174	1049.68384	-1249.25928	-1112.48804	933.29193	-1227.39758	-1069.79297	829.69269	-1177.28235	-1082.43481	823.62842	-1231.29553	-1044.47107	751.96954	-1208.28699	-1286.74304	1351.35352	-876.26776	-1328.11304	1128.54346	-817.18848	-1335.13794	1014.8645	-808.57416	-1346.41699	877.95435	-809.35059	-1329.32385	778.87335	-840.94159	-1369.85303	779.35956	-805.51044	-1362.24255	705.28412	-815.82941	-1222.23193	911.48859	-1145.86938	-1245.45996	936.06885	-911.19043	-1386.06506	953.60938	-1113.06653	-1399.92029	972.7655	-967.13373	-1343.89905	623.93561	-1196.31384	-1393.02087	451.47067	-1175.42224	-1521.57996	302.49146	-1195.75757	-1658.68506	136.61816	-1168.75366	-1690.92126	104.39149	-1142.37817	-1520.27222	25.92939	-1132.07935	-1259.93787	648.29767	-860.97882	-1211.26257	476.95798	-899.85461	-1227.30371	286.13135	-888.29431	-1220.63257	68.93181	-929.2583	-1261.49426	35.1632	-981.76532	-1077.52234	33.02601	-936.72589	NaN	NaN	NaN	NaN	NaN	NaN	NaN	NaN	NaN	NaN	NaN	NaN	NaN	NaN	NaN	NaN	NaN	NaN
38	0.37	-1167.64136	1612.61377	-1077.60461	-1197.76379	1617.38611	-948.85931	-1288.07751	1552.36926	-1100.30054	-1312.41479	1557.13696	-971.13409	-1320.08618	1410.13806	-1048.41321	-1373.92444	1101.52942	-1058.30322	-1201.71301	1328.42383	-1022.57782	-1168.35303	1160.09827	-1024.64685	-1399.58643	1240.06458	-968.44257	-1208.3811	1368.3501	-1182.60181	-1186.54333	1172.48523	-1245.85168	-1162.6427	1051.2605	-1248.22314	-1110.50024	933.18536	-1227.39099	-1071.19397	827.46704	-1178.64417	-1083.16431	822.77747	-1232.99658	-1048.33801	749.09692	-1210.29834	-1278.7395	1353.04419	-874.38092	-1317.43738	1130.00647	-814.69427	-1322.74023	1016.31165	-806.13159	-1332.53589	879.38794	-806.40088	-1315.10376	780.26495	-837.95197	-1354.95483	780.46301	-801.93018	-1346.71228	706.5423	-812.07904	-1214.02258	913.13904	-1143.70667	-1236.09741	937.57983	-909.21899	-1377.45764	954.99426	-1110.448	-1390.86462	973.98096	-964.45978	-1333.5791	624.93182	-1195.39319	-1381.06909	451.70874	-1175.70129	-1512.34521	304.84705	-1195.604	-1651.09998	139.97037	-1168.50769	-1685.92456	111.55841	-1141.91174	-1519.33057	26.09604	-1132.25391	-1252.59583	648.89813	-860.2851	-1205.66309	477.035	-899.28693	-1223.80627	286.17291	-887.68378	-1220.32947	68.89202	-929.29071	-1261.55566	35.19765	-981.56219	-1077.35437	32.91679	-936.90326	-1272.76794	1664.58716	-1046.28625	NaN	NaN	NaN	NaN	NaN	NaN	NaN	NaN	NaN	NaN	NaN	NaN	NaN	NaN	NaN
39	0.38	-1160.59399	1614.09253	-1076.21411	-1190.35181	1618.84619	-947.17651	-1281.15698	1554.10803	-1098.43225	-1305.05798	1558.9032	-969.23785	-1313.02246	1410.97986	-1046.12646	-1365.63269	1102.50085	-1055.50146	-1194.30872	1329.94519	-1020.46002	-1159.9895	1161.7417	-1022.8493	-1391.35156	1241.14832	-965.62524	-1201.95374	1370.05762	-1180.58215	-1180.67871	1174.46582	-1244.42993	-1157.86731	1052.79517	-1247.16919	-1108.41833	933.23376	-1227.49585	-1072.73486	825.45343	-1180.02942	-1083.80701	822.17224	-1234.74487	-1052.2113	746.5462	-1212.44983	-1270.76526	1354.88892	-872.35565	-1306.74438	1131.49707	-812.06311	-1310.37012	1017.83356	-803.42365	-1318.84314	881.0188	-802.99384	-1300.06714	782.12769	-834.2088	-1339.95508	781.69733	-798.29675	-1330.47302	707.66827	-808.29779	-1205.58948	914.44653	-1141.71069	-1226.63025	938.82178	-907.23035	-1368.95374	956.34741	-1107.73193	-1381.59265	974.95544	-961.6142	-1322.92517	625.5061	-1194.50012	-1368.17859	451.3587	-1176.03528	-1505.90747	305.23611	-1194.72131	-1646.31165	141.35602	-1167.53296	-1679.82849	119.2615	-1141.03186	-1518.68591	26.13622	-1131.97461	-1245.56812	649.29865	-859.3645	-1200.47473	476.91299	-898.32489	-1220.53918	286.05042	-887.2915	-1220.18433	68.89343	-929.30939	-1261.53992	35.21218	-981.63831	-1077.13586	32.79542	-937.24225	-1261.42261	1665.84668	-1048.20264	NaN	NaN	NaN	NaN	NaN	NaN	NaN	NaN	NaN	NaN	NaN	NaN	NaN	NaN	NaN
40	0.39	-1153.39636	1615.29834	-1074.60327	-1182.7229	1620.20483	-945.57782	-1274.22205	1555.73987	-1096.53394	-1297.72656	1560.59619	-967.26117	-1306.06226	1411.87842	-1043.77759	-1357.50635	1103.33167	-1052.52283	-1186.78589	1331.3761	-1019.01111	-1151.60205	1163.50439	-1020.9101	-1383.02283	1241.94873	-962.56854	-1195.63806	1371.61987	-1178.5752	-1174.84497	1176.15747	-1242.89941	-1153.1449	1054.14502	-1246.172	-1106.45166	933.26813	-1227.53137	-1074.12427	823.62958	-1181.5592	-1084.26465	821.69824	-1236.5946	-1056.02246	744.22327	-1214.79297	-1262.61877	1356.48926	-870.31445	-1296.06311	1132.95898	-809.17407	-1298.1676	1019.36841	-800.48108	-1304.8656	882.41272	-799.73651	-1285.16296	783.51306	-831.10846	-1324.73474	782.8653	-794.5141	-1314.16357	708.70496	-804.45508	-1197.47839	915.97198	-1140.10364	-1217.16003	939.69342	-905.2702	-1360.5072	957.60303	-1104.96814	-1372.08093	975.83038	-958.60901	-1311.68958	625.7478	-1193.64282	-1354.14685	450.42578	-1176.32031	-1494.67175	307.04706	-1194.3772	-1636.72559	144.16354	-1167.09668	-1673.92188	127.18131	-1139.57935	-1517.62427	26.32486	-1131.94519	-1238.75867	649.56671	-858.45801	-1195.58606	476.49612	-897.53094	-1217.59534	285.84375	-887.03412	-1219.84741	68.75029	-929.87262	-1261.46484	35.17935	-981.89032	-1076.93677	32.68192	-937.50598	NaN	NaN	NaN	NaN	NaN	NaN	NaN	NaN	NaN	NaN	NaN	NaN	NaN	NaN	NaN	NaN	NaN	NaN
